<svg xmlns="http://www.w3.org/2000/svg" viewBox="0 0 1024 100"><defs><style>.a{fill:#53585f;}.b{fill:#49b1f2;}.c{fill:#dbdddf;}.d{fill:#fff;}.e{fill:none;stroke:#595757;stroke-miterlimit:10;stroke-width:0.2px;}</style></defs><title>content-footer</title><rect class="a" x="-3" y="40" width="1027.661" height="75.833"/><rect class="b" x="-3.168" y="38.408" width="1027.997" height="3.184"/><rect class="c" x="962.5" y="55.375" width="41.875" height="66.625" rx="2" ry="2"/><polygon class="d" points="78.378 50 82.65 58.539 78.378 58.539 78.378 50"/><polygon class="d" points="78.378 75.615 82.65 84.151 78.378 84.151 78.378 75.615"/><polygon class="d" points="78.378 75.615 78.378 84.151 74.111 75.615 78.378 75.615"/><polygon class="d" points="78.378 50 78.378 58.539 74.111 50 78.378 50"/><polygon class="d" points="74.111 50 78.378 58.539 74.111 58.539 74.111 50"/><polygon class="d" points="74.111 75.615 78.378 84.151 74.111 84.151 74.111 75.615"/><polygon class="d" points="74.111 75.615 74.111 84.151 69.842 75.615 74.111 75.615"/><polygon class="d" points="74.111 50 74.111 58.539 69.842 50 74.111 50"/><polygon class="d" points="69.842 50 74.111 58.539 69.842 58.539 69.842 50"/><polygon class="d" points="69.842 75.615 74.111 84.151 69.842 84.151 69.842 75.615"/><polygon class="d" points="69.842 75.615 69.842 84.151 65.571 75.615 69.842 75.615"/><polygon class="d" points="69.842 67.076 69.842 75.615 65.571 67.076 69.842 67.076"/><polygon class="d" points="69.842 58.539 69.842 67.076 65.571 58.539 69.842 58.539"/><polygon class="d" points="69.842 50 69.842 58.539 65.571 50 69.842 50"/><polygon class="d" points="65.571 50 69.842 58.539 65.571 58.539 65.571 50"/><polygon class="d" points="65.571 58.539 69.842 67.076 65.571 67.076 65.571 58.539"/><polygon class="d" points="65.571 67.076 69.842 75.615 65.571 75.615 65.571 67.076"/><polygon class="d" points="65.571 75.615 69.842 84.151 65.571 84.151 65.571 75.615"/><polygon class="d" points="65.571 75.615 65.571 84.151 61.303 75.615 65.571 75.615"/><polygon class="d" points="65.571 67.076 65.571 75.615 61.303 67.076 65.571 67.076"/><polygon class="d" points="65.571 58.539 65.571 67.076 61.303 58.539 65.571 58.539"/><polygon class="d" points="65.571 50 65.571 58.539 61.303 50 65.571 50"/><polygon class="d" points="61.303 50 65.571 58.539 61.303 58.539 61.303 50"/><polygon class="d" points="61.303 58.539 65.571 67.076 61.303 67.076 61.303 58.539"/><polygon class="d" points="61.303 67.076 65.571 75.615 61.303 75.615 61.303 67.076"/><polygon class="d" points="52.766 50 57.035 58.539 52.766 58.539 52.766 50"/><polygon class="d" points="52.766 50 52.766 58.539 48.495 50 52.766 50"/><polygon class="d" points="48.495 50 52.766 58.539 48.495 58.539 48.495 50"/><polygon class="d" points="48.495 75.615 48.495 84.151 44.227 75.615 48.495 75.615"/><polygon class="d" points="48.495 67.076 48.495 75.615 44.227 67.076 48.495 67.076"/><polygon class="d" points="48.495 58.539 48.495 67.076 44.227 58.539 48.495 58.539"/><polygon class="d" points="48.495 50 48.495 58.539 44.227 50 48.495 50"/><polygon class="d" points="44.227 50 48.495 58.539 44.227 58.539 44.227 50"/><polygon class="d" points="44.227 58.539 48.495 67.076 44.227 67.076 44.227 58.539"/><polygon class="d" points="44.227 67.076 48.495 75.615 44.227 75.615 44.227 67.076"/><polygon class="d" points="44.227 75.615 48.495 84.151 44.227 84.151 44.227 75.615"/><polygon class="d" points="44.227 75.615 44.227 84.151 39.96 75.615 44.227 75.615"/><polygon class="d" points="44.227 67.076 44.227 75.615 39.96 67.076 44.227 67.076"/><polygon class="d" points="44.227 58.539 44.227 67.076 39.96 58.539 44.227 58.539"/><polygon class="d" points="44.227 50 44.227 58.539 39.96 50 44.227 50"/><polygon class="d" points="39.96 50 44.227 58.539 39.96 58.539 39.96 50"/><polygon class="d" points="39.96 58.539 44.227 67.076 39.96 67.076 39.96 58.539"/><polygon class="d" points="39.96 67.076 44.227 75.615 39.96 75.615 39.96 67.076"/><polygon class="d" points="39.96 50 39.96 58.539 35.688 50 39.96 50"/><polygon class="d" points="35.688 50 39.96 58.539 35.688 58.539 35.688 50"/><polygon class="d" points="35.688 50 35.688 58.539 31.42 50 35.688 50"/><polygon class="d" points="27.151 75.615 27.151 84.151 22.884 75.615 27.151 75.615"/><polygon class="d" points="27.151 67.076 27.151 75.615 22.884 67.076 27.151 67.076"/><polygon class="d" points="27.151 58.539 27.151 67.076 22.884 58.539 27.151 58.539"/><polygon class="d" points="22.884 50 27.151 58.539 22.884 58.539 22.884 50"/><polygon class="d" points="22.884 58.539 27.151 67.076 22.884 67.076 22.884 58.539"/><polygon class="d" points="22.884 67.076 27.151 75.615 22.884 75.615 22.884 67.076"/><polygon class="d" points="22.884 75.615 27.151 84.151 22.884 84.151 22.884 75.615"/><polygon class="d" points="22.884 75.615 22.884 84.151 18.612 75.615 22.884 75.615"/><polygon class="d" points="22.884 67.076 22.884 75.615 18.612 67.076 22.884 67.076"/><polygon class="d" points="22.884 58.539 22.884 67.076 18.612 58.539 22.884 58.539"/><polygon class="d" points="22.884 50 22.884 58.539 18.612 50 22.884 50"/><polygon class="d" points="18.612 50 22.884 58.539 18.612 58.539 18.612 50"/><polygon class="d" points="18.612 58.539 22.884 67.076 18.612 67.076 18.612 58.539"/><polygon class="d" points="18.612 67.076 22.884 75.615 18.612 75.615 18.612 67.076"/><line class="e" x1="18.612" y1="50" x2="18.612" y2="58.539"/><polyline class="e" points="22.884 50 18.612 50 22.884 58.539"/><line class="e" x1="18.612" y1="58.539" x2="18.612" y2="67.076"/><polyline class="e" points="22.884 58.539 18.612 58.539 22.884 67.076"/><line class="e" x1="18.612" y1="67.076" x2="18.612" y2="75.615"/><polyline class="e" points="22.884 67.076 18.612 67.076 22.884 75.615"/><polyline class="e" points="22.884 75.615 18.612 75.615 22.884 84.151"/><line class="e" x1="22.884" y1="50" x2="22.884" y2="58.539"/><line class="e" x1="22.884" y1="50" x2="27.151" y2="58.539"/><line class="e" x1="22.884" y1="58.539" x2="22.884" y2="67.076"/><polyline class="e" points="27.151 58.539 22.884 58.539 27.151 67.076"/><line class="e" x1="22.884" y1="67.076" x2="22.884" y2="75.615"/><polyline class="e" points="27.151 67.076 22.884 67.076 27.151 75.615"/><line class="e" x1="22.884" y1="75.615" x2="22.884" y2="84.151"/><polyline class="e" points="27.151 75.615 22.884 75.615 27.151 84.151"/><line class="e" x1="27.151" y1="84.151" x2="22.884" y2="84.151"/><line class="e" x1="27.151" y1="58.539" x2="27.151" y2="67.076"/><line class="e" x1="27.151" y1="67.076" x2="27.151" y2="75.615"/><line class="e" x1="27.151" y1="75.615" x2="27.151" y2="84.151"/><polyline class="e" points="35.688 50 31.42 50 35.688 58.539"/><line class="e" x1="35.688" y1="50" x2="35.688" y2="58.539"/><polyline class="e" points="39.96 50 35.688 50 39.96 58.539"/><line class="e" x1="39.96" y1="58.539" x2="35.688" y2="58.539"/><line class="e" x1="39.96" y1="50" x2="39.96" y2="58.539"/><polyline class="e" points="44.227 50 39.96 50 44.227 58.539"/><line class="e" x1="39.96" y1="58.539" x2="39.96" y2="67.076"/><polyline class="e" points="44.227 58.539 39.96 58.539 44.227 67.076"/><line class="e" x1="39.96" y1="67.076" x2="39.96" y2="75.615"/><polyline class="e" points="44.227 67.076 39.96 67.076 44.227 75.615"/><polyline class="e" points="44.227 75.615 39.96 75.615 44.227 84.151"/><line class="e" x1="44.227" y1="50" x2="44.227" y2="58.539"/><polyline class="e" points="48.495 50 44.227 50 48.495 58.539"/><line class="e" x1="44.227" y1="58.539" x2="44.227" y2="67.076"/><polyline class="e" points="48.495 58.539 44.227 58.539 48.495 67.076"/><line class="e" x1="44.227" y1="67.076" x2="44.227" y2="75.615"/><polyline class="e" points="48.495 67.076 44.227 67.076 48.495 75.615"/><line class="e" x1="44.227" y1="75.615" x2="44.227" y2="84.151"/><polyline class="e" points="48.495 75.615 44.227 75.615 48.495 84.151"/><line class="e" x1="48.495" y1="84.151" x2="44.227" y2="84.151"/><line class="e" x1="48.495" y1="50" x2="48.495" y2="58.539"/><polyline class="e" points="52.766 50 48.495 50 52.766 58.539"/><line class="e" x1="48.495" y1="58.539" x2="48.495" y2="67.076"/><line class="e" x1="52.766" y1="58.539" x2="48.495" y2="58.539"/><line class="e" x1="48.495" y1="67.076" x2="48.495" y2="75.615"/><line class="e" x1="48.495" y1="75.615" x2="48.495" y2="84.151"/><line class="e" x1="52.766" y1="50" x2="52.766" y2="58.539"/><line class="e" x1="52.766" y1="50" x2="57.035" y2="58.539"/><line class="e" x1="57.035" y1="58.539" x2="52.766" y2="58.539"/><line class="e" x1="61.303" y1="50" x2="61.303" y2="58.539"/><polyline class="e" points="65.571 50 61.303 50 65.571 58.539"/><line class="e" x1="61.303" y1="58.539" x2="61.303" y2="67.076"/><polyline class="e" points="65.571 58.539 61.303 58.539 65.571 67.076"/><line class="e" x1="61.303" y1="67.076" x2="61.303" y2="75.615"/><polyline class="e" points="65.571 67.076 61.303 67.076 65.571 75.615"/><polyline class="e" points="65.571 75.615 61.303 75.615 65.571 84.151"/><line class="e" x1="65.571" y1="50" x2="65.571" y2="58.539"/><polyline class="e" points="69.842 50 65.571 50 69.842 58.539"/><line class="e" x1="65.571" y1="58.539" x2="65.571" y2="67.076"/><polyline class="e" points="69.842 58.539 65.571 58.539 69.842 67.076"/><line class="e" x1="65.571" y1="67.076" x2="65.571" y2="75.615"/><polyline class="e" points="69.842 67.076 65.571 67.076 69.842 75.615"/><line class="e" x1="65.571" y1="75.615" x2="65.571" y2="84.151"/><polyline class="e" points="69.842 75.615 65.571 75.615 69.842 84.151"/><line class="e" x1="69.842" y1="84.151" x2="65.571" y2="84.151"/><line class="e" x1="69.842" y1="50" x2="69.842" y2="58.539"/><polyline class="e" points="74.111 50 69.842 50 74.111 58.539"/><line class="e" x1="69.842" y1="58.539" x2="69.842" y2="67.076"/><line class="e" x1="74.111" y1="58.539" x2="69.842" y2="58.539"/><line class="e" x1="69.842" y1="67.076" x2="69.842" y2="75.615"/><line class="e" x1="69.842" y1="75.615" x2="69.842" y2="84.151"/><polyline class="e" points="74.111 75.615 69.842 75.615 74.111 84.151"/><line class="e" x1="74.111" y1="84.151" x2="69.842" y2="84.151"/><line class="e" x1="74.111" y1="50" x2="74.111" y2="58.539"/><polyline class="e" points="78.378 50 74.111 50 78.378 58.539"/><line class="e" x1="78.378" y1="58.539" x2="74.111" y2="58.539"/><line class="e" x1="74.111" y1="75.615" x2="74.111" y2="84.151"/><polyline class="e" points="78.378 75.615 74.111 75.615 78.378 84.151"/><line class="e" x1="78.378" y1="84.151" x2="74.111" y2="84.151"/><line class="e" x1="78.378" y1="50" x2="78.378" y2="58.539"/><line class="e" x1="78.378" y1="50" x2="82.65" y2="58.539"/><line class="e" x1="82.65" y1="58.539" x2="78.378" y2="58.539"/><line class="e" x1="78.378" y1="75.615" x2="78.378" y2="84.151"/><line class="e" x1="78.378" y1="75.615" x2="82.65" y2="84.151"/><line class="e" x1="82.65" y1="84.151" x2="78.378" y2="84.151"/><path class="d" d="M116.445,62.033h.488V72.552h-.488Z"/><path class="d" d="M128.763,62.466h-3.511V72.552h-.487V62.466h-3.524v-.433h7.522Z"/><path class="d" d="M146.519,72.162a6.749,6.749,0,0,1-2.87.543c-2.41,0-4.89-1.519-4.89-5.363,0-3.052,1.881-5.476,5.28-5.476a5.294,5.294,0,0,1,2.41.46l-.195.4a4.734,4.734,0,0,0-2.173-.474c-2.981,0-4.807,1.992-4.807,5.126,0,2.968,1.714,4.918,4.625,4.918a5.46,5.46,0,0,0,2.424-.516Z"/><path class="d" d="M154.395,65.391a2.539,2.539,0,0,0-.32-.027c-1.212,0-2.076,1.337-2.076,3.009v4.18h-.488V67.286c0-.683-.014-1.478-.056-2.2h.459l.028,1.56h.042a2.336,2.336,0,0,1,2.131-1.728.985.985,0,0,1,.279.042Z"/><path class="d" d="M164.178,72.2a4.586,4.586,0,0,1-2.312.5c-2.09,0-3.4-1.574-3.4-3.748,0-2.591,1.463-4.04,3.288-4.04,2.215,0,2.842,1.937,2.842,3.47a1.179,1.179,0,0,1-.014.236h-5.614c-.014,2.341,1.087,3.678,2.967,3.678a4.18,4.18,0,0,0,2.076-.474Zm-.125-4.012c.014-.836-.348-2.884-2.354-2.884-1.741,0-2.535,1.644-2.675,2.884Z"/><path class="d" d="M174.185,70.782a10.865,10.865,0,0,0,.112,1.77h-.46l-.111-1.129H173.7a2.844,2.844,0,0,1-2.41,1.3,1.985,1.985,0,0,1-2.16-2.006c0-1.686,1.477-2.744,4.57-2.7,0-.85,0-2.675-2.006-2.675a3.213,3.213,0,0,0-1.839.6l-.195-.362a3.748,3.748,0,0,1,2.076-.655c2.1,0,2.452,1.645,2.452,2.912Zm-.5-2.34c-1.449-.028-4.054.194-4.054,2.187a1.569,1.569,0,0,0,1.63,1.686,2.326,2.326,0,0,0,2.424-2.075Z"/><path class="d" d="M180.208,63.72l.487-.224v1.589h2.2v.432h-2.2v5.141c0,.947.362,1.644,1.17,1.644a2.2,2.2,0,0,0,.822-.139l.111.361a2.4,2.4,0,0,1-.961.182c-1.519,0-1.63-1.338-1.63-2.215V65.517h-1.3v-.432h1.3Z"/><path class="d" d="M192.888,72.2a4.586,4.586,0,0,1-2.312.5c-2.09,0-3.4-1.574-3.4-3.748,0-2.591,1.463-4.04,3.288-4.04,2.215,0,2.842,1.937,2.842,3.47a1.179,1.179,0,0,1-.014.236h-5.614c-.014,2.341,1.087,3.678,2.967,3.678a4.18,4.18,0,0,0,2.076-.474Zm-.125-4.012c.014-.836-.348-2.884-2.354-2.884-1.741,0-2.535,1.644-2.675,2.884Z"/><path class="d" d="M211.981,72.162a6.749,6.749,0,0,1-2.87.543c-2.41,0-4.89-1.519-4.89-5.363,0-3.052,1.881-5.476,5.28-5.476a5.294,5.294,0,0,1,2.41.46l-.195.4a4.734,4.734,0,0,0-2.173-.474c-2.981,0-4.807,1.992-4.807,5.126,0,2.968,1.714,4.918,4.625,4.918a5.46,5.46,0,0,0,2.424-.516Z"/><path class="d" d="M217.461,72.552h-.488V61.477h.488Z"/><path class="d" d="M228.817,70.824c0,.613.014,1.156.056,1.728h-.46l-.056-1.365h-.028a2.829,2.829,0,0,1-2.563,1.532c-.864,0-2.563-.39-2.563-3.288V65.085h.488v4.193c0,1.88.683,3.036,2.146,3.036a2.645,2.645,0,0,0,2.494-2.591V65.085h.487Z"/><path class="d" d="M235.162,66.575a2.993,2.993,0,0,1,2.8-1.658c1.923,0,3.218,1.589,3.218,3.817,0,2.717-1.728,3.984-3.315,3.984a2.9,2.9,0,0,1-2.73-1.574h-.042l-.042,1.407h-.459c.042-.529.056-1.17.056-1.658V61.477h.488v5.1Zm-.028,3.093a2.742,2.742,0,0,0,2.688,2.646c1.811,0,2.856-1.518,2.856-3.566,0-1.8-.989-3.413-2.772-3.413a2.94,2.94,0,0,0-2.772,2.843Z"/></svg>