<svg xmlns="http://www.w3.org/2000/svg" viewBox="0 0 1024 120"><defs><style>.a{fill:#727171;}.b{fill:#fff;}.c{fill:none;stroke:#727171;stroke-miterlimit:10;stroke-width:0.2px;}</style></defs><title>main-footer</title><rect class="a" width="1024" height="120"/><rect class="b" width="1024" height="3.184"/><polygon class="b" points="466.741 34.562 472.437 45.947 466.741 45.947 466.741 34.562"/><polygon class="b" points="466.741 68.716 472.437 80.099 466.741 80.099 466.741 68.716"/><polygon class="b" points="466.741 68.716 466.741 80.099 461.051 68.716 466.741 68.716"/><polygon class="b" points="466.741 34.562 466.741 45.947 461.051 34.562 466.741 34.562"/><polygon class="b" points="461.051 34.562 466.741 45.947 461.051 45.947 461.051 34.562"/><polygon class="b" points="461.051 68.716 466.741 80.099 461.051 80.099 461.051 68.716"/><polygon class="b" points="461.051 68.716 461.051 80.099 455.358 68.716 461.051 68.716"/><polygon class="b" points="461.051 34.562 461.051 45.947 455.358 34.562 461.051 34.562"/><polygon class="b" points="455.358 34.562 461.051 45.947 455.358 45.947 455.358 34.562"/><polygon class="b" points="455.358 68.716 461.051 80.099 455.358 80.099 455.358 68.716"/><polygon class="b" points="455.358 68.716 455.358 80.099 449.664 68.716 455.358 68.716"/><polygon class="b" points="455.358 57.33 455.358 68.716 449.664 57.33 455.358 57.33"/><polygon class="b" points="455.358 45.947 455.358 57.33 449.664 45.947 455.358 45.947"/><polygon class="b" points="455.358 34.562 455.358 45.947 449.664 34.562 455.358 34.562"/><polygon class="b" points="449.664 34.562 455.358 45.947 449.664 45.947 449.664 34.562"/><polygon class="b" points="449.664 45.947 455.358 57.33 449.664 57.33 449.664 45.947"/><polygon class="b" points="449.664 57.33 455.358 68.716 449.664 68.716 449.664 57.33"/><polygon class="b" points="449.664 68.716 455.358 80.099 449.664 80.099 449.664 68.716"/><polygon class="b" points="449.664 68.716 449.664 80.099 443.972 68.716 449.664 68.716"/><polygon class="b" points="449.664 57.33 449.664 68.716 443.972 57.33 449.664 57.33"/><polygon class="b" points="449.664 45.947 449.664 57.33 443.972 45.947 449.664 45.947"/><polygon class="b" points="449.664 34.562 449.664 45.947 443.972 34.562 449.664 34.562"/><polygon class="b" points="443.972 34.562 449.664 45.947 443.972 45.947 443.972 34.562"/><polygon class="b" points="443.972 45.947 449.664 57.33 443.972 57.33 443.972 45.947"/><polygon class="b" points="443.972 57.33 449.664 68.716 443.972 68.716 443.972 57.33"/><polygon class="b" points="432.589 34.562 438.282 45.947 432.589 45.947 432.589 34.562"/><polygon class="b" points="432.589 34.562 432.589 45.947 426.895 34.562 432.589 34.562"/><polygon class="b" points="426.895 34.562 432.589 45.947 426.895 45.947 426.895 34.562"/><polygon class="b" points="426.895 68.716 426.895 80.099 421.203 68.716 426.895 68.716"/><polygon class="b" points="426.895 57.33 426.895 68.716 421.203 57.33 426.895 57.33"/><polygon class="b" points="426.895 45.947 426.895 57.33 421.203 45.947 426.895 45.947"/><polygon class="b" points="426.895 34.562 426.895 45.947 421.203 34.562 426.895 34.562"/><polygon class="b" points="421.203 34.562 426.895 45.947 421.203 45.947 421.203 34.562"/><polygon class="b" points="421.203 45.947 426.895 57.33 421.203 57.33 421.203 45.947"/><polygon class="b" points="421.203 57.33 426.895 68.716 421.203 68.716 421.203 57.33"/><polygon class="b" points="421.203 68.716 426.895 80.099 421.203 80.099 421.203 68.716"/><polygon class="b" points="421.203 68.716 421.203 80.099 415.514 68.716 421.203 68.716"/><polygon class="b" points="421.203 57.33 421.203 68.716 415.514 57.33 421.203 57.33"/><polygon class="b" points="421.203 45.947 421.203 57.33 415.514 45.947 421.203 45.947"/><polygon class="b" points="421.203 34.562 421.203 45.947 415.514 34.562 421.203 34.562"/><polygon class="b" points="415.514 34.562 421.203 45.947 415.514 45.947 415.514 34.562"/><polygon class="b" points="415.514 45.947 421.203 57.33 415.514 57.33 415.514 45.947"/><polygon class="b" points="415.514 57.33 421.203 68.716 415.514 68.716 415.514 57.33"/><polygon class="b" points="415.514 34.562 415.514 45.947 409.818 34.562 415.514 34.562"/><polygon class="b" points="409.818 34.562 415.514 45.947 409.818 45.947 409.818 34.562"/><polygon class="b" points="409.818 34.562 409.818 45.947 404.126 34.562 409.818 34.562"/><polygon class="b" points="398.435 68.716 398.435 80.099 392.745 68.716 398.435 68.716"/><polygon class="b" points="398.435 57.33 398.435 68.716 392.745 57.33 398.435 57.33"/><polygon class="b" points="398.435 45.947 398.435 57.33 392.745 45.947 398.435 45.947"/><polygon class="b" points="392.745 34.562 398.435 45.947 392.745 45.947 392.745 34.562"/><polygon class="b" points="392.745 45.947 398.435 57.33 392.745 57.33 392.745 45.947"/><polygon class="b" points="392.745 57.33 398.435 68.716 392.745 68.716 392.745 57.33"/><polygon class="b" points="392.745 68.716 398.435 80.099 392.745 80.099 392.745 68.716"/><polygon class="b" points="392.745 68.716 392.745 80.099 387.049 68.716 392.745 68.716"/><polygon class="b" points="392.745 57.33 392.745 68.716 387.049 57.33 392.745 57.33"/><polygon class="b" points="392.745 45.947 392.745 57.33 387.049 45.947 392.745 45.947"/><polygon class="b" points="392.745 34.562 392.745 45.947 387.049 34.562 392.745 34.562"/><polygon class="b" points="387.049 34.562 392.745 45.947 387.049 45.947 387.049 34.562"/><polygon class="b" points="387.049 45.947 392.745 57.33 387.049 57.33 387.049 45.947"/><polygon class="b" points="387.049 57.33 392.745 68.716 387.049 68.716 387.049 57.33"/><line class="c" x1="387.049" y1="34.562" x2="387.049" y2="45.947"/><polyline class="c" points="392.745 34.562 387.049 34.562 392.745 45.947"/><line class="c" x1="387.049" y1="45.947" x2="387.049" y2="57.33"/><polyline class="c" points="392.745 45.947 387.049 45.947 392.745 57.33"/><line class="c" x1="387.049" y1="57.33" x2="387.049" y2="68.716"/><polyline class="c" points="392.745 57.33 387.049 57.33 392.745 68.716"/><polyline class="c" points="392.745 68.716 387.049 68.716 392.745 80.099"/><line class="c" x1="392.745" y1="34.562" x2="392.745" y2="45.947"/><line class="c" x1="392.745" y1="34.562" x2="398.435" y2="45.947"/><line class="c" x1="392.745" y1="45.947" x2="392.745" y2="57.33"/><polyline class="c" points="398.435 45.947 392.745 45.947 398.435 57.33"/><line class="c" x1="392.745" y1="57.33" x2="392.745" y2="68.716"/><polyline class="c" points="398.435 57.33 392.745 57.33 398.435 68.716"/><line class="c" x1="392.745" y1="68.716" x2="392.745" y2="80.099"/><polyline class="c" points="398.435 68.716 392.745 68.716 398.435 80.099"/><line class="c" x1="398.435" y1="80.099" x2="392.745" y2="80.099"/><line class="c" x1="398.435" y1="45.947" x2="398.435" y2="57.33"/><line class="c" x1="398.435" y1="57.33" x2="398.435" y2="68.716"/><line class="c" x1="398.435" y1="68.716" x2="398.435" y2="80.099"/><polyline class="c" points="409.818 34.562 404.126 34.562 409.818 45.947"/><line class="c" x1="409.818" y1="34.562" x2="409.818" y2="45.947"/><polyline class="c" points="415.514 34.562 409.818 34.562 415.514 45.947"/><line class="c" x1="415.514" y1="45.947" x2="409.818" y2="45.947"/><line class="c" x1="415.514" y1="34.562" x2="415.514" y2="45.947"/><polyline class="c" points="421.203 34.562 415.514 34.562 421.203 45.947"/><line class="c" x1="415.514" y1="45.947" x2="415.514" y2="57.33"/><polyline class="c" points="421.203 45.947 415.514 45.947 421.203 57.33"/><line class="c" x1="415.514" y1="57.33" x2="415.514" y2="68.716"/><polyline class="c" points="421.203 57.33 415.514 57.33 421.203 68.716"/><polyline class="c" points="421.203 68.716 415.514 68.716 421.203 80.099"/><line class="c" x1="421.203" y1="34.562" x2="421.203" y2="45.947"/><polyline class="c" points="426.895 34.562 421.203 34.562 426.895 45.947"/><line class="c" x1="421.203" y1="45.947" x2="421.203" y2="57.33"/><polyline class="c" points="426.895 45.947 421.203 45.947 426.895 57.33"/><line class="c" x1="421.203" y1="57.33" x2="421.203" y2="68.716"/><polyline class="c" points="426.895 57.33 421.203 57.33 426.895 68.716"/><line class="c" x1="421.203" y1="68.716" x2="421.203" y2="80.099"/><polyline class="c" points="426.895 68.716 421.203 68.716 426.895 80.099"/><line class="c" x1="426.895" y1="80.099" x2="421.203" y2="80.099"/><line class="c" x1="426.895" y1="34.562" x2="426.895" y2="45.947"/><polyline class="c" points="432.589 34.562 426.895 34.562 432.589 45.947"/><line class="c" x1="426.895" y1="45.947" x2="426.895" y2="57.33"/><line class="c" x1="432.589" y1="45.947" x2="426.895" y2="45.947"/><line class="c" x1="426.895" y1="57.33" x2="426.895" y2="68.716"/><line class="c" x1="426.895" y1="68.716" x2="426.895" y2="80.099"/><line class="c" x1="432.589" y1="34.562" x2="432.589" y2="45.947"/><line class="c" x1="432.589" y1="34.562" x2="438.282" y2="45.947"/><line class="c" x1="438.282" y1="45.947" x2="432.589" y2="45.947"/><line class="c" x1="443.972" y1="34.562" x2="443.972" y2="45.947"/><polyline class="c" points="449.664 34.562 443.972 34.562 449.664 45.947"/><line class="c" x1="443.972" y1="45.947" x2="443.972" y2="57.33"/><polyline class="c" points="449.664 45.947 443.972 45.947 449.664 57.33"/><line class="c" x1="443.972" y1="57.33" x2="443.972" y2="68.716"/><polyline class="c" points="449.664 57.33 443.972 57.33 449.664 68.716"/><polyline class="c" points="449.664 68.716 443.972 68.716 449.664 80.099"/><line class="c" x1="449.664" y1="34.562" x2="449.664" y2="45.947"/><polyline class="c" points="455.358 34.562 449.664 34.562 455.358 45.947"/><line class="c" x1="449.664" y1="45.947" x2="449.664" y2="57.33"/><polyline class="c" points="455.358 45.947 449.664 45.947 455.358 57.33"/><line class="c" x1="449.664" y1="57.33" x2="449.664" y2="68.716"/><polyline class="c" points="455.358 57.33 449.664 57.33 455.358 68.716"/><line class="c" x1="449.664" y1="68.716" x2="449.664" y2="80.099"/><polyline class="c" points="455.358 68.716 449.664 68.716 455.358 80.099"/><line class="c" x1="455.358" y1="80.099" x2="449.664" y2="80.099"/><line class="c" x1="455.358" y1="34.562" x2="455.358" y2="45.947"/><polyline class="c" points="461.051 34.562 455.358 34.562 461.051 45.947"/><line class="c" x1="455.358" y1="45.947" x2="455.358" y2="57.33"/><line class="c" x1="461.051" y1="45.947" x2="455.358" y2="45.947"/><line class="c" x1="455.358" y1="57.33" x2="455.358" y2="68.716"/><line class="c" x1="455.358" y1="68.716" x2="455.358" y2="80.099"/><polyline class="c" points="461.051 68.716 455.358 68.716 461.051 80.099"/><line class="c" x1="461.051" y1="80.099" x2="455.358" y2="80.099"/><line class="c" x1="461.051" y1="34.562" x2="461.051" y2="45.947"/><polyline class="c" points="466.741 34.562 461.051 34.562 466.741 45.947"/><line class="c" x1="466.741" y1="45.947" x2="461.051" y2="45.947"/><line class="c" x1="461.051" y1="68.716" x2="461.051" y2="80.099"/><polyline class="c" points="466.741 68.716 461.051 68.716 466.741 80.099"/><line class="c" x1="466.741" y1="80.099" x2="461.051" y2="80.099"/><line class="c" x1="466.741" y1="34.562" x2="466.741" y2="45.947"/><line class="c" x1="466.741" y1="34.562" x2="472.437" y2="45.947"/><line class="c" x1="472.437" y1="45.947" x2="466.741" y2="45.947"/><line class="c" x1="466.741" y1="68.716" x2="466.741" y2="80.099"/><line class="c" x1="466.741" y1="68.716" x2="472.437" y2="80.099"/><line class="c" x1="472.437" y1="80.099" x2="466.741" y2="80.099"/><path class="b" d="M493.5,50.6h.65V64.631h-.65Z"/><path class="b" d="M509.928,51.175h-4.684V64.631h-.65V51.175h-4.7V50.6h10.036Z"/><path class="b" d="M533.6,64.11a8.991,8.991,0,0,1-3.829.725c-3.215,0-6.523-2.025-6.523-7.155,0-4.07,2.51-7.3,7.044-7.3a7.069,7.069,0,0,1,3.216.613l-.261.539a6.32,6.32,0,0,0-2.9-.632c-3.977,0-6.411,2.657-6.411,6.839,0,3.959,2.285,6.561,6.17,6.561a7.294,7.294,0,0,0,3.233-.687Z"/><path class="b" d="M544.1,55.078a3.312,3.312,0,0,0-.427-.037c-1.617,0-2.77,1.784-2.77,4.015v5.575h-.65V57.605c0-.91-.019-1.97-.074-2.937h.613l.037,2.082h.056a3.115,3.115,0,0,1,2.844-2.3,1.286,1.286,0,0,1,.371.056Z"/><path class="b" d="M557.148,64.166a6.119,6.119,0,0,1-3.085.669c-2.788,0-4.535-2.1-4.535-5,0-3.457,1.952-5.39,4.387-5.39,2.955,0,3.791,2.583,3.791,4.628a1.6,1.6,0,0,1-.019.315H550.2c-.019,3.122,1.449,4.906,3.958,4.906a5.577,5.577,0,0,0,2.77-.632Zm-.167-5.353c.019-1.115-.465-3.847-3.141-3.847-2.323,0-3.383,2.192-3.568,3.847Z"/><path class="b" d="M570.491,62.271a14.537,14.537,0,0,0,.148,2.36h-.613l-.148-1.506h-.037a3.793,3.793,0,0,1-3.216,1.729,2.648,2.648,0,0,1-2.881-2.676c0-2.249,1.971-3.661,6.1-3.605,0-1.134,0-3.568-2.677-3.568a4.289,4.289,0,0,0-2.453.8l-.26-.483a5,5,0,0,1,2.769-.873c2.807,0,3.271,2.193,3.271,3.884Zm-.669-3.122c-1.934-.037-5.408.26-5.408,2.918a2.093,2.093,0,0,0,2.174,2.248,3.1,3.1,0,0,0,3.234-2.769Z"/><path class="b" d="M578.52,52.848l.65-.3v2.118h2.937v.576H579.17V62.1c0,1.264.482,2.192,1.561,2.192a2.923,2.923,0,0,0,1.1-.186l.148.483a3.2,3.2,0,0,1-1.282.241c-2.025,0-2.174-1.784-2.174-2.955V55.245h-1.729v-.576h1.729Z"/><path class="b" d="M595.431,64.166a6.119,6.119,0,0,1-3.085.669c-2.788,0-4.535-2.1-4.535-5,0-3.457,1.952-5.39,4.387-5.39,2.955,0,3.791,2.583,3.791,4.628a1.6,1.6,0,0,1-.019.315H588.48c-.019,3.122,1.449,4.906,3.958,4.906a5.577,5.577,0,0,0,2.77-.632Zm-.167-5.353c.019-1.115-.465-3.847-3.141-3.847-2.323,0-3.383,2.192-3.568,3.847Z"/><path class="b" d="M620.892,64.11a8.991,8.991,0,0,1-3.829.725c-3.215,0-6.523-2.025-6.523-7.155,0-4.07,2.51-7.3,7.044-7.3a7.069,7.069,0,0,1,3.216.613l-.261.539a6.32,6.32,0,0,0-2.9-.632c-3.977,0-6.412,2.657-6.412,6.839,0,3.959,2.286,6.561,6.171,6.561a7.294,7.294,0,0,0,3.233-.687Z"/><path class="b" d="M628.194,64.631h-.65V49.855h.65Z"/><path class="b" d="M643.34,62.326c0,.818.019,1.543.074,2.3H642.8l-.074-1.821h-.037a3.772,3.772,0,0,1-3.419,2.044c-1.152,0-3.42-.52-3.42-4.386v-5.8h.65v5.595c0,2.509.91,4.051,2.862,4.051a3.527,3.527,0,0,0,3.326-3.456V54.669h.65Z"/><path class="b" d="M651.8,56.658a3.992,3.992,0,0,1,3.735-2.212c2.565,0,4.294,2.118,4.294,5.092,0,3.625-2.3,5.315-4.424,5.315a3.871,3.871,0,0,1-3.643-2.1H651.7l-.056,1.877h-.613c.056-.706.074-1.562.074-2.212V49.855h.65v6.8Zm-.037,4.126a3.658,3.658,0,0,0,3.587,3.53c2.416,0,3.81-2.025,3.81-4.758,0-2.4-1.319-4.553-3.7-4.553a3.922,3.922,0,0,0-3.7,3.791Z"/></svg>